<?xml version="1.0" encoding="utf-8"?>
<!-- Generator: Adobe Illustrator 25.1.0, SVG Export Plug-In . SVG Version: 6.00 Build 0)  -->
<svg version="1.1" id="Layer_1" xmlns="http://www.w3.org/2000/svg" xmlns:xlink="http://www.w3.org/1999/xlink" x="0px" y="0px"
	 viewBox="0 0 57 57" style="enable-background:new 0 0 57 57;" xml:space="preserve">
<style type="text/css">
	.st0{fill:#337A3C;}
</style>
<g id="Group_64" transform="translate(-4548 -3478)">
	<g id="Group_51" transform="translate(4377 -387)">
		<path id="Path_51" class="st0" d="M199.7,3885.3c1.3-0.9,2.6-1.7,4.1-2.3c0.3,0.1,0.6,0.3,0.8,0.4c0.3,0.2,0.5,0.4,0.6,0.7
			c0.2,0.2,0.1,0.6-0.2,1.3c-0.3,0.7-0.8,2-1.5,4.1c-0.7,2.1-1.2,3.6-1.5,4.7s-0.6,2.1-1,3.1c-0.4,1-0.6,1.9-0.9,2.7
			c-0.7,1.8-1.3,3.8-1.7,5.7c-0.1,0.3-0.3,0.7-0.4,1.2c-0.1,0.5-0.3,1.1-0.6,1.5c-0.3,0.2-0.8,0-1.4-0.7c-0.2-0.2-0.2-0.5-0.2-0.8
			c0-0.5,0.5-2.6,1.5-6.5c0.2-0.1,0.7-1.3,1.3-3.5c0.6-2.2,1.3-4.2,1.8-5.9l0.9-3.4c-1.7,0.9-3.3,2-4.9,3.1
			c-1.6,1.2-2.7,1.9-3.1,2.1c-0.5,0.4-1,0.7-1.5,1.1c-0.2,0.1-0.5,0-0.7-0.1c-0.8-0.7-1.1-1.4-0.7-2c0.1,0,0.6-0.4,1.7-1.1
			c0.5-0.4,1.1-0.8,1.7-1.1c0.1,0,0.3-0.1,0.4-0.2c0.1-0.1,0.3-0.2,0.5-0.4c0.2-0.1,0.3-0.3,0.5-0.4c0.2-0.2,0.5-0.5,0.8-0.6
			c0.4-0.3,1-0.7,1.8-1.3S199.1,3885.7,199.7,3885.3z"/>
	</g>
</g>
</svg>
