<svg xmlns="http://www.w3.org/2000/svg" width="62.5" height="50" viewBox="0 0 62.5 50">
  <g id="Group_230" data-name="Group 230" transform="translate(-1062 -1165)">
    <path id="Path_36" data-name="Path 36" d="M134.506,439.43v31.25a3.126,3.126,0,0,1-3.125,3.125H75.131a3.126,3.126,0,0,1-3.125-3.125V439.43a3.126,3.126,0,0,1,3.125-3.125h7.337a8.606,8.606,0,0,0,1.062,1.355l1.758,1.77H75.131v31.25h56.25V439.43H115.116l-3.153-3.125h19.418A3.126,3.126,0,0,1,134.506,439.43Zm-48.795-4a4.551,4.551,0,0,1-1.205-2.842v-.018a4.654,4.654,0,0,1,1.178-2.855l4.723-4.727a4.022,4.022,0,0,1,5.688,0L124.2,452.832a3.58,3.58,0,0,1,.928,2.222V461.3a3.126,3.126,0,0,1-3.125,3.125h-6.25a3.594,3.594,0,0,1-2.223-.928Zm-1.205,18.848v-1.562a.782.782,0,0,1,.782-.782h12.38l3.1,3.125H85.288A.782.782,0,0,1,84.506,454.273Zm0,7.813a.782.782,0,0,1,.782-.782h21.67l3.1,3.125H85.288a.782.782,0,0,1-.782-.782Zm3.125-29.533a1.029,1.029,0,0,0,.263.633l4.348,4.35,5.992-5.995-4.348-4.35a1.009,1.009,0,0,0-.627-.262h-.005a1.031,1.031,0,0,0-.635.262l-4.725,4.727A1.033,1.033,0,0,0,87.631,432.553Zm6.65,7.013L115.756,461.3h6.25v-6.25L100.274,433.57Z" transform="translate(989.994 741.195)" fill="#007b85"/>
  </g>
</svg>
