<svg xmlns="http://www.w3.org/2000/svg" width="29.68" height="29.68" viewBox="0 0 29.68 29.68">
  <g id="Group_228" data-name="Group 228" transform="translate(-172 -1800)">
    <circle id="Ellipse_7" data-name="Ellipse 7" cx="14.84" cy="14.84" r="14.84" transform="translate(172 1800)" fill="#ea7600"/>
    <g id="Group_209" data-name="Group 209" transform="translate(-1906.465 2252.47)">
      <path id="Path_89" data-name="Path 89" d="M2089.886-431.845a.609.609,0,0,1-.252-.176l-4.684-4.684a.749.749,0,0,1-.229-.549.75.75,0,0,1,.229-.55.749.749,0,0,1,.549-.229.75.75,0,0,1,.55.229l4.135,4.135,10.391-10.391a.75.75,0,0,1,.55-.229.749.749,0,0,1,.549.229.75.75,0,0,1,.229.549.749.749,0,0,1-.229.549l-10.94,10.94a.609.609,0,0,1-.252.176.852.852,0,0,1-.3.053A.851.851,0,0,1,2089.886-431.845Z" transform="translate(0 0)" fill="#fff"/>
    </g>
  </g>
</svg>
