<?xml version="1.0" encoding="utf-8"?>
<!-- Generator: Adobe Illustrator 25.4.1, SVG Export Plug-In . SVG Version: 6.00 Build 0)  -->
<svg version="1.1" id="Layer_1" xmlns="http://www.w3.org/2000/svg" xmlns:xlink="http://www.w3.org/1999/xlink" x="0px" y="0px"
	 viewBox="0 0 8.3 13.6" style="enable-background:new 0 0 8.3 13.6;" xml:space="preserve">
<style type="text/css">
	.st0{fill:#AC004D;}
</style>
<path id="Lorem_ipsum_dolor_si" class="st0" d="M6.3,13.4c0.3,0.3,0.8,0.3,1.1,0l0.7-0.7c0.1-0.1,0.2-0.3,0.2-0.5
	c0-0.2-0.1-0.4-0.2-0.5L3.3,6.8L8.1,2c0.1-0.1,0.2-0.3,0.2-0.5c0-0.2-0.1-0.4-0.2-0.5L7.4,0.2c-0.3-0.3-0.8-0.3-1.1,0L0.3,6.3
	c0,0-0.1,0.1-0.1,0.1c-0.2,0.3-0.2,0.7,0.1,1L6.3,13.4z"/>
</svg>
