<svg xmlns="http://www.w3.org/2000/svg" width="150" height="150" viewBox="0 0 150 150">
  <g id="Quote_icn" data-name="Quote icn" transform="translate(-225 -2217)">
    <g id="Quote_icon" data-name="Quote icon">
      <circle id="Ellipse_21" data-name="Ellipse 21" cx="75" cy="75" r="75" transform="translate(225 2217)" fill="#f1f3f3"/>
    </g>
    <path id="Path_184" data-name="Path 184" d="M52.82-84.564a20.175,20.175,0,0,0-7.465,5.508,15.623,15.623,0,0,0-3.841,7.538,20.247,20.247,0,0,0-.362,3.479,8.847,8.847,0,0,0,.362,2.754,11.441,11.441,0,0,1,8.625-3.552,11.93,11.93,0,0,1,8.48,3.044,10.938,10.938,0,0,1,3.262,8.408,10.748,10.748,0,0,1-3.443,8.263A12.35,12.35,0,0,1,49.7-45.932q-7.248,0-10.582-5.219A18.025,18.025,0,0,1,36.73-56.7a26.462,26.462,0,0,1-.87-6.777,25.87,25.87,0,0,1,3.914-13.916,26,26,0,0,1,11.669-9.857Zm-30.587,0a20.175,20.175,0,0,0-7.465,5.508,15.623,15.623,0,0,0-3.841,7.538,20.247,20.247,0,0,0-.362,3.479,8.847,8.847,0,0,0,.362,2.754,11.441,11.441,0,0,1,8.625-3.552,11.93,11.93,0,0,1,8.48,3.044,10.938,10.938,0,0,1,3.262,8.408,10.748,10.748,0,0,1-3.443,8.263,12.35,12.35,0,0,1-8.734,3.189q-7.248,0-10.582-5.219A18.025,18.025,0,0,1,6.143-56.7a26.462,26.462,0,0,1-.87-6.777A25.87,25.87,0,0,1,9.187-77.389a26,26,0,0,1,11.669-9.857Z" transform="translate(266.423 2358.589)" fill="#a80a2f"/>
  </g>
</svg>
