<svg xmlns="http://www.w3.org/2000/svg" width="16.5" height="16.5" viewBox="0 0 16.5 16.5">
  <path id="FB-Cross" d="M81.129,18.7a1.037,1.037,0,0,1-1.461,0L75.5,14.531,71.332,18.7a1.037,1.037,0,0,1-1.461,0l-2.32-2.32a1.037,1.037,0,0,1,0-1.461l4.168-4.168L67.551,6.582a1.037,1.037,0,0,1,0-1.461l2.32-2.32a1.037,1.037,0,0,1,1.461,0L75.5,6.969,79.668,2.8a1.037,1.037,0,0,1,1.461,0l2.32,2.32a1.037,1.037,0,0,1,0,1.461L79.281,10.75l4.168,4.168a1.037,1.037,0,0,1,0,1.461Z" transform="translate(-67.25 -2.5)" fill="#007b85"/>
</svg>
