<svg id="Group_32" data-name="Group 32" xmlns="http://www.w3.org/2000/svg" width="60.019" height="108.413" viewBox="0 0 60.019 108.413">
  <path id="Path_28" data-name="Path 28" d="M798.7,936.056c-1.317.8-2.484,1.443-3.573,2.194-8.671,5.973-17.3,12-26,17.934a41.727,41.727,0,0,1-7.463,4.434c-4.79,1.959-7.119.092-6.677-4.993.622-7.146,1.317-14.286,1.935-21.432q1.83-21.167,3.6-42.337c.167-1.99.677-3.385,3.34-2.373-.656,17.323-1.309,34.585-1.98,52.311.643-.862,1.1-1.378,1.447-1.956q2.673-4.431,5.3-8.89c14.879-25.265,30.23-50.265,42.883-76.778.329-.69,1.843-.814,2.8-1.2.217.851.818,1.832.582,2.528a60.96,60.96,0,0,1-2.934,7.026c-12.6,25.918-27.595,50.5-42.169,75.319-2.2,3.753-4.054,7.9-6.989,10.983-2.684,2.822-2.438,5.613-2.5,9.338,5.235-3.557,10-6.842,14.817-10.054,5.811-3.877,11.63-7.745,17.52-11.5C794.365,935.506,796.334,934.681,798.7,936.056Z" transform="translate(-754.931 -852.968)" fill="#337a3c"/>
  <path id="Path_29" data-name="Path 29" d="M798.7,936.056c-2.365-1.375-4.334-.55-6.062.552-5.89,3.755-11.709,7.623-17.52,11.5-4.815,3.212-9.582,6.5-14.817,10.054.066-3.725-.18-6.516,2.5-9.338,2.935-3.087,4.785-7.23,6.989-10.983,14.574-24.817,29.565-49.4,42.169-75.319A60.96,60.96,0,0,0,814.9,855.5c.236-.7-.365-1.677-.582-2.528-.961.388-2.475.512-2.8,1.2-12.653,26.513-28,51.513-42.883,76.778q-2.626,4.46-5.3,8.89c-.35.578-.8,1.094-1.447,1.956.671-17.726,1.324-34.988,1.98-52.311-2.663-1.012-3.173.383-3.34,2.373q-1.779,21.171-3.6,42.337c-.618,7.146-1.313,14.286-1.935,21.432-.442,5.085,1.887,6.952,6.677,4.993a41.727,41.727,0,0,0,7.463-4.434c8.7-5.936,17.331-11.961,26-17.934C796.215,937.5,797.382,936.861,798.7,936.056Z" transform="translate(-754.931 -852.968)" fill="#337a3c"/>
</svg>
