<svg width="158" height="37" viewBox="0 0 158 37" fill="none" xmlns="http://www.w3.org/2000/svg">
<g clip-path="url(#clip0_161_590)">
<path d="M50.6415 13.0179C50.6415 18.2659 46.8483 22.109 41.4025 22.109H35.3665V3.92676H41.4025C46.8483 3.92676 50.6415 7.76992 50.6415 13.0179ZM47.3835 13.0179C47.3835 9.6915 45.0855 6.88951 41.4576 6.88951H38.5734V19.1463H41.4576C45.0895 19.1463 47.3835 16.3137 47.3835 13.0179Z" fill="black"/>
<path d="M64.3663 15.9007C64.3663 16.1342 64.3663 16.6012 64.3387 17.0682H54.8872C55.1272 18.1591 56.4375 19.5601 58.4364 19.5601C60.6518 19.5601 61.907 18.3122 61.907 18.3122L63.5085 20.651C63.5085 20.651 61.5056 22.4157 58.4364 22.4157C54.5921 22.4157 51.6292 19.5601 51.6292 15.9466C51.6292 12.3331 54.3245 9.47754 57.9839 9.47754C61.6433 9.47754 64.3663 12.0996 64.3663 15.893V15.9007ZM61.1633 14.8097C61.1082 13.7456 60.0969 12.3178 57.9839 12.3178C55.8709 12.3178 54.9934 13.7226 54.8872 14.8097H61.1633Z" fill="black"/>
<path d="M77.9297 15.9007C77.9297 16.1342 77.9297 16.6012 77.9022 17.0682H68.4507C68.6907 18.1591 70.001 19.5601 72.0038 19.5601C74.2191 19.5601 75.4744 18.3122 75.4744 18.3122L77.0759 20.651C77.0759 20.651 75.073 22.4157 72.0038 22.4157C68.1595 22.4157 65.1965 19.5601 65.1965 15.9466C65.1965 12.3331 67.8919 9.47754 71.5513 9.47754C75.2107 9.47754 77.9336 12.0996 77.9336 15.893L77.9297 15.9007ZM74.7267 14.8097C74.6717 13.7456 73.6604 12.3178 71.5513 12.3178C69.4422 12.3178 68.5608 13.7226 68.4546 14.8097H74.7307H74.7267Z" fill="black"/>
<path d="M91.7057 22.1095H88.7427V20.498C88.7427 20.498 87.6488 22.4196 84.9259 22.4196C81.6403 22.4196 78.76 19.7439 78.76 15.9505C78.76 12.1571 81.6443 9.48145 84.9259 9.48145C87.3301 9.48145 88.5027 11.093 88.5027 11.093V2.47266H91.7057V22.1095ZM88.5027 14.1093C88.5027 14.1093 87.5937 12.3944 85.4847 12.3944C83.3756 12.3944 82.0141 13.9256 82.0141 15.9543C82.0141 17.9831 83.3244 19.5142 85.4847 19.5142C87.6449 19.5142 88.5027 17.7994 88.5027 17.7994V14.1093Z" fill="black"/>
<path d="M108.444 17.2789L110.581 19.3306C110.581 19.3306 108.126 22.4235 103.4 22.4235C98.0053 22.4235 93.9209 18.3966 93.9209 13.0223C93.9209 7.64799 98.0053 3.62109 103.4 3.62109C107.886 3.62109 110.317 6.47667 110.317 6.47667L108.153 8.5284C108.153 8.5284 106.473 6.52643 103.4 6.52643C99.7169 6.52643 97.179 9.51215 97.179 13.0185C97.179 16.5248 99.7169 19.5105 103.4 19.5105C106.686 19.5105 108.448 17.275 108.448 17.275L108.444 17.2789Z" fill="black"/>
<path d="M112.371 2.47266H115.574V22.1095H112.371V2.47266Z" fill="black"/>
<path d="M129.594 14.0828V22.1098H126.631V20.5518C126.631 20.5518 125.321 22.4236 122.464 22.4236C120.088 22.4236 117.9 20.9155 117.9 18.2934C117.9 15.9316 120.115 14.2167 122.866 14.2167C125.187 14.2167 126.391 15.101 126.391 15.101V14.4005C126.391 12.7889 124.79 12.2722 123.668 12.2722C121.827 12.2722 119.875 13.1832 119.875 13.1832L118.832 10.6109C118.832 10.6109 121.182 9.49316 123.826 9.49316C127.458 9.49316 129.594 11.2846 129.594 14.0904V14.0828ZM126.391 18.3929V17.1182C126.391 17.1182 125.242 16.4943 123.507 16.4943C122.519 16.4943 121.158 16.9115 121.158 18.236C121.158 19.5604 122.468 19.8207 123.456 19.8207C125.38 19.8207 126.391 18.3929 126.391 18.3929Z" fill="black"/>
<path d="M134.237 3.77051C135.414 3.77051 136.347 4.68154 136.347 5.82224C136.347 6.96293 135.41 7.87396 134.237 7.87396C133.065 7.87396 132.128 6.96293 132.128 5.82224C132.128 4.68154 133.065 3.77051 134.237 3.77051ZM132.636 9.79554H135.839V22.1097H132.636V9.79554Z" fill="black"/>
<path d="M158 14.1859V22.1095H154.797V14.9935C154.797 13.3055 154.128 12.3944 152.527 12.3944C150.846 12.3944 150.044 13.9792 150.044 13.9792V22.1095H146.841V14.9935C146.841 13.3055 146.172 12.3944 144.57 12.3944C142.886 12.3944 142.087 13.9792 142.087 13.9792V22.1095H138.885V9.79533H141.875V11.5868C141.875 11.5868 143.024 9.48145 145.613 9.48145C148.659 9.48145 149.536 11.6365 149.536 11.6365C149.536 11.6365 150.603 9.48145 153.569 9.48145C156.131 9.48145 158 11.2231 158 14.182V14.1859Z" fill="black"/>
<path d="M41.3671 32.1954C41.3671 33.9103 40.0882 35.1927 38.353 35.1927C36.6177 35.1927 35.3389 33.9103 35.3389 32.1954C35.3389 30.4806 36.6177 29.1982 38.353 29.1982C40.0882 29.1982 41.3671 30.4806 41.3671 32.1954ZM40.3283 32.1954C40.3283 31.0777 39.5531 30.1399 38.353 30.1399C37.1528 30.1399 36.3777 31.0739 36.3777 32.1954C36.3777 33.317 37.1528 34.251 38.353 34.251C39.5531 34.251 40.3283 33.3132 40.3283 32.1954Z" fill="#989898"/>
<path d="M45.8135 32.5516V35.0933H44.7904V32.8004C44.7904 32.2377 44.4323 31.9966 43.9916 31.9966C43.4644 31.9966 43.1929 32.5019 43.1929 32.5019V35.0933H42.1698V31.1659H43.122V31.7363C43.122 31.7363 43.4801 31.0664 44.33 31.0664C45.1131 31.0664 45.8095 31.6061 45.8095 32.5478L45.8135 32.5516Z" fill="#989898"/>
<path d="M46.9545 28.8311H47.9776V35.0934H46.9545V28.8311Z" fill="#989898"/>
<path d="M49.7915 29.248C50.1653 29.248 50.4644 29.539 50.4644 29.9026C50.4644 30.2663 50.1653 30.5572 49.7915 30.5572C49.4177 30.5572 49.1187 30.2663 49.1187 29.9026C49.1187 29.539 49.4177 29.248 49.7915 29.248ZM49.28 31.1696H50.303V35.097H49.28V31.1696Z" fill="#989898"/>
<path d="M55.1312 32.5516V35.0933H54.1082V32.8004C54.1082 32.2377 53.7501 31.9966 53.3094 31.9966C52.7821 31.9966 52.5106 32.5019 52.5106 32.5019V35.0933H51.4875V31.1659H52.4398V31.7363C52.4398 31.7363 52.7979 31.0664 53.6478 31.0664C54.4308 31.0664 55.1273 31.6061 55.1273 32.5478L55.1312 32.5516Z" fill="#989898"/>
<path d="M59.9395 33.1143C59.9395 33.187 59.9395 33.3363 59.9317 33.4856H56.9176C56.9923 33.8339 57.4094 34.2818 58.0508 34.2818C58.7591 34.2818 59.1565 33.8837 59.1565 33.8837L59.668 34.6301C59.668 34.6301 59.0306 35.1928 58.0508 35.1928C56.8231 35.1928 55.8788 34.2818 55.8788 33.1296C55.8788 31.9774 56.7366 31.0664 57.9052 31.0664C59.0109 31.0664 59.9395 31.9047 59.9395 33.1105V33.1143ZM58.9165 32.766C58.9007 32.4253 58.5742 31.9698 57.9052 31.9698C57.2363 31.9698 56.953 32.4176 56.9176 32.766H58.9165Z" fill="#989898"/>
<path d="M68.1831 32.1955C68.1831 33.8682 66.9751 35.0931 65.2359 35.0931H63.3118V29.2939H65.2359C66.9712 29.2939 68.1831 30.5189 68.1831 32.1916V32.1955ZM67.1443 32.1955C67.1443 31.1351 66.4124 30.2394 65.2556 30.2394H64.3348V34.1477H65.2556C66.4124 34.1477 67.1443 33.2443 67.1443 32.1916V32.1955Z" fill="#989898"/>
<path d="M72.775 33.1143C72.775 33.187 72.775 33.3363 72.7671 33.4856H69.753C69.8317 33.8339 70.2449 34.2818 70.8863 34.2818C71.5945 34.2818 71.992 33.8837 71.992 33.8837L72.5035 34.6301C72.5035 34.6301 71.866 35.1928 70.8863 35.1928C69.6586 35.1928 68.7142 34.2818 68.7142 33.1296C68.7142 31.9774 69.576 31.0664 70.7407 31.0664C71.9054 31.0664 72.775 31.9047 72.775 33.1105V33.1143ZM71.7519 32.766C71.7362 32.4253 71.4096 31.9698 70.7367 31.9698C70.0639 31.9698 69.7845 32.4176 69.7491 32.766H71.748H71.7519Z" fill="#989898"/>
<path d="M77.3119 33.1143C77.3119 33.187 77.3119 33.3363 77.304 33.4856H74.2899C74.3647 33.8339 74.7818 34.2818 75.4231 34.2818C76.1314 34.2818 76.5288 33.8837 76.5288 33.8837L77.0404 34.6301C77.0404 34.6301 76.4029 35.1928 75.4231 35.1928C74.1955 35.1928 73.2511 34.2818 73.2511 33.1296C73.2511 31.9774 74.1089 31.0664 75.2775 31.0664C76.3832 31.0664 77.3119 31.9047 77.3119 33.1105V33.1143ZM76.2888 32.766C76.2731 32.4253 75.9465 31.9698 75.2775 31.9698C74.6086 31.9698 74.3253 32.4176 74.2899 32.766H76.2888Z" fill="#989898"/>
<path d="M81.9197 35.0934H80.9753V34.5805C80.9753 34.5805 80.6251 35.1929 79.7594 35.1929C78.7127 35.1929 77.792 34.3393 77.792 33.1297C77.792 31.9201 78.7127 31.0665 79.7594 31.0665C80.5267 31.0665 80.9005 31.5794 80.9005 31.5794V28.8311H81.9236V35.0934H81.9197ZM80.8966 32.5441C80.8966 32.5441 80.6054 31.9967 79.9326 31.9967C79.2597 31.9967 78.8269 32.4867 78.8269 33.1297C78.8269 33.7728 79.244 34.2628 79.9326 34.2628C80.6211 34.2628 80.8966 33.7154 80.8966 33.7154V32.5402V32.5441Z" fill="#989898"/>
<path d="M85.6853 29.2979H87.7118C88.8961 29.2979 89.687 30.094 89.687 31.1544C89.687 32.2147 88.8961 33.0109 87.7118 33.0109H86.7084V35.097H85.6853V29.2979ZM88.6482 31.1544C88.6482 30.607 88.2823 30.2433 87.5819 30.2433H86.7044V32.0654H87.5819C88.2784 32.0654 88.6482 31.7017 88.6482 31.1544Z" fill="#989898"/>
<path d="M93.1537 31.1927L92.7956 32.0884C92.7956 32.0884 92.6067 31.9966 92.3116 31.9966C91.6899 31.9966 91.4105 32.5248 91.4105 32.5248V35.0933H90.3875V31.1659H91.3594V31.7363C91.3594 31.7363 91.7096 31.0664 92.4572 31.0664C92.8231 31.0664 93.1537 31.1889 93.1537 31.1889V31.1927Z" fill="#989898"/>
<path d="M97.3364 33.1143C97.3364 33.187 97.3364 33.3363 97.3285 33.4856H94.3144C94.3931 33.8339 94.8063 34.2818 95.4477 34.2818C96.1559 34.2818 96.5534 33.8837 96.5534 33.8837L97.0649 34.6301C97.0649 34.6301 96.4274 35.1928 95.4477 35.1928C94.22 35.1928 93.2756 34.2818 93.2756 33.1296C93.2756 31.9774 94.1374 31.0664 95.3021 31.0664C96.4668 31.0664 97.3364 31.9047 97.3364 33.1105V33.1143ZM96.3133 32.766C96.2976 32.4253 95.971 31.9698 95.2981 31.9698C94.6253 31.9698 94.3459 32.4176 94.3105 32.766H96.3094H96.3133Z" fill="#989898"/>
<path d="M99.0323 31.1698V31.6828C99.0323 31.6828 99.414 31.0703 100.248 31.0703C101.295 31.0703 102.216 31.9239 102.216 33.1335C102.216 34.3431 101.295 35.1967 100.248 35.1967C99.6107 35.1967 99.2448 34.8561 99.107 34.6915V37.0035H98.084V31.1737H99.0284L99.0323 31.1698ZM99.107 33.7192C99.107 33.7192 99.3982 34.2666 100.071 34.2666C100.744 34.2666 101.177 33.7766 101.177 33.1335C101.177 32.4904 100.76 32.0005 100.071 32.0005C99.3825 32.0005 99.107 32.5479 99.107 32.5479V33.723V33.7192Z" fill="#989898"/>
<path d="M106.509 32.5365V35.0974H105.564V34.5997C105.564 34.5997 105.147 35.1969 104.234 35.1969C103.475 35.1969 102.778 34.7184 102.778 33.8801C102.778 33.126 103.487 32.5786 104.36 32.5786C105.1 32.5786 105.485 32.8619 105.485 32.8619V32.6399C105.485 32.127 104.974 31.9624 104.616 31.9624C104.03 31.9624 103.408 32.2533 103.408 32.2533L103.077 31.4341C103.077 31.4341 103.825 31.0781 104.671 31.0781C105.828 31.0781 106.509 31.6485 106.509 32.5442V32.5365ZM105.485 33.9107V33.505C105.485 33.505 105.12 33.3059 104.565 33.3059C104.25 33.3059 103.817 33.4399 103.817 33.861C103.817 34.282 104.234 34.3662 104.549 34.3662C105.163 34.3662 105.485 33.9107 105.485 33.9107Z" fill="#989898"/>
<path d="M110.298 31.1927L109.94 32.0884C109.94 32.0884 109.751 31.9966 109.456 31.9966C108.834 31.9966 108.555 32.5248 108.555 32.5248V35.0933H107.531V31.1659H108.503V31.7363C108.503 31.7363 108.854 31.0664 109.601 31.0664C109.967 31.0664 110.298 31.1889 110.298 31.1889V31.1927Z" fill="#989898"/>
<path d="M114.264 32.5365V35.0974H113.32V34.5997C113.32 34.5997 112.903 35.1969 111.99 35.1969C111.23 35.1969 110.534 34.7184 110.534 33.8801C110.534 33.126 111.242 32.5786 112.116 32.5786C112.855 32.5786 113.241 32.8619 113.241 32.8619V32.6399C113.241 32.127 112.729 31.9624 112.371 31.9624C111.785 31.9624 111.163 32.2533 111.163 32.2533L110.833 31.4341C110.833 31.4341 111.58 31.0781 112.426 31.0781C113.583 31.0781 114.264 31.6485 114.264 32.5442V32.5365ZM113.241 33.9107V33.505C113.241 33.505 112.875 33.3059 112.32 33.3059C112.005 33.3059 111.573 33.4399 111.573 33.861C111.573 34.282 111.99 34.3662 112.304 34.3662C112.918 34.3662 113.241 33.9107 113.241 33.9107Z" fill="#989898"/>
<path d="M114.964 31.1694H115.755V30.002H116.778V31.1694H117.994V32.0652H116.778V33.6461C116.778 34.1246 117.034 34.2662 117.306 34.2662C117.534 34.2662 117.731 34.1246 117.731 34.1246L118.104 34.9361C118.104 34.9361 117.723 35.1925 117.133 35.1925C116.35 35.1925 115.755 34.6375 115.755 33.803V32.0652H114.964V31.1694Z" fill="#989898"/>
<path d="M119.505 29.248C119.879 29.248 120.178 29.539 120.178 29.9026C120.178 30.2663 119.879 30.5572 119.505 30.5572C119.132 30.5572 118.833 30.2663 118.833 29.9026C118.833 29.539 119.132 29.248 119.505 29.248ZM118.994 31.1696H120.017V35.097H118.994V31.1696Z" fill="#989898"/>
<path d="M125.234 33.1296C125.234 34.2818 124.282 35.1928 123.082 35.1928C121.882 35.1928 120.93 34.2818 120.93 33.1296C120.93 31.9774 121.882 31.0664 123.082 31.0664C124.282 31.0664 125.234 31.9698 125.234 33.1296ZM124.196 33.1296C124.196 32.5172 123.771 31.9966 123.082 31.9966C122.393 31.9966 121.968 32.5172 121.968 33.1296C121.968 33.7421 122.393 34.2627 123.082 34.2627C123.771 34.2627 124.196 33.7421 124.196 33.1296Z" fill="#989898"/>
<path d="M129.63 32.5516V35.0933H128.607V32.8004C128.607 32.2377 128.249 31.9966 127.808 31.9966C127.281 31.9966 127.009 32.5019 127.009 32.5019V35.0933H125.986V31.1659H126.938V31.7363C126.938 31.7363 127.296 31.0664 128.146 31.0664C128.929 31.0664 129.626 31.6061 129.626 32.5478L129.63 32.5516Z" fill="#989898"/>
<path d="M17.1737 7.00206L7.23187 9.30078L7.63677 10.958L17.5786 8.65928L17.1737 7.00206Z" fill="black"/>
<path d="M18.123 10.8712L8.18115 13.1699L8.58605 14.8271L18.5279 12.5284L18.123 10.8712Z" fill="black"/>
<path d="M19.0684 14.7413L9.12659 17.04L9.53149 18.6973L19.4733 16.3985L19.0684 14.7413Z" fill="black"/>
<path d="M24.2623 15.0554L21.6732 4.45608C21.2049 2.53832 19.2178 1.34786 17.2465 1.80338L16.8412 0.145918C18.2499 -0.17945 19.7097 0.0463933 20.9413 0.788996C22.1768 1.52777 23.0386 2.69144 23.377 4.06564L25.9661 14.665L24.2623 15.0592V15.0554Z" fill="#F3AB4C"/>
<path d="M11.3835 25.2105L10.9782 23.553L21.9368 21.019C23.9081 20.5634 25.1319 18.6304 24.6636 16.7126L26.3674 16.3184C27.0599 19.151 25.2538 22.0027 22.3421 22.6764L11.3835 25.2105Z" fill="#CA0000"/>
<path d="M8.4206 25.7463C5.96526 25.7463 3.73026 24.1118 3.14004 21.685L0.550903 11.0857L2.25469 10.6914L4.84383 21.2907C5.07205 22.2209 5.6544 23.0094 6.49253 23.5109C7.33065 24.0123 8.31436 24.1693 9.27053 23.9473L9.67582 25.6047C9.25479 25.7004 8.83376 25.7502 8.4206 25.7502V25.7463Z" fill="#009A00"/>
<path d="M0.149487 9.42831C-0.543047 6.5957 1.26305 3.74395 4.17484 3.07025L15.1334 0.540039L15.5387 2.1975L4.58013 4.73153C2.60877 5.18705 1.38503 7.12011 1.85328 9.03787L0.149487 9.42831Z" fill="#2488D5"/>
</g>
<defs>
<clipPath id="clip0_161_590">
<rect width="158" height="37" fill="white"/>
</clipPath>
</defs>
</svg>
