<?xml version="1.0" encoding="utf-8"?>
<!-- Generator: Adobe Illustrator 26.0.3, SVG Export Plug-In . SVG Version: 6.00 Build 0)  -->
<svg version="1.1" id="Layer_1" xmlns="http://www.w3.org/2000/svg" xmlns:xlink="http://www.w3.org/1999/xlink" x="0px" y="0px"
	 viewBox="0 0 26 14.6" style="enable-background:new 0 0 26 14.6;" xml:space="preserve">
<style type="text/css">
	.st0{fill:none;stroke:#AC004D;stroke-width:2;}
</style>
<path id="down_arrow" class="st0" d="M1,1.6c0-0.1,0-0.2,0-0.2c0-0.1,0.1-0.1,0.1-0.2C1.3,1.1,1.5,1,1.6,1C1.8,1,2,1.1,2.1,1.2
	L13,12.1L23.9,1.2C24,1.1,24.2,1,24.4,1c0.2,0,0.3,0.1,0.5,0.2C24.9,1.3,25,1.5,25,1.6c0,0.2-0.1,0.3-0.2,0.4L13.4,13.4
	c-0.1,0.1-0.3,0.2-0.4,0.2c-0.2,0-0.3-0.1-0.4-0.2L1.2,2.1C1.1,2,1.1,2,1,1.9C1,1.8,1,1.7,1,1.6z"/>
</svg>
