<svg xmlns="http://www.w3.org/2000/svg" width="10.502" height="6" viewBox="0 0 10.502 6"><defs><style>.a{fill:#fff;stroke:#fff;}</style></defs><path class="a" d="M0-6.5a.273.273,0,0,1,.017-.1.2.2,0,0,1,.056-.081.24.24,0,0,1,.176-.073.24.24,0,0,1,.176.073L4.751-2.354,9.072-6.675a.243.243,0,0,1,.178-.073.243.243,0,0,1,.178.073A.24.24,0,0,1,9.5-6.5a.24.24,0,0,1-.073.176l-4.5,4.5a.24.24,0,0,1-.176.073.24.24,0,0,1-.176-.073l-4.5-4.5A.2.2,0,0,1,.017-6.4.273.273,0,0,1,0-6.5Z" transform="translate(0.5 7.248)"/></svg>