<svg xmlns="http://www.w3.org/2000/svg" width="17.104" height="9" viewBox="0 0 17.104 9"><defs><style>.a{fill:#005695;}</style></defs><path class="a" d="M0-11.7a.492.492,0,0,1,.031-.171.353.353,0,0,1,.1-.145.432.432,0,0,1,.316-.132.432.432,0,0,1,.316.132L8.552-4.236l7.778-7.778a.437.437,0,0,1,.321-.132.437.437,0,0,1,.321.132.432.432,0,0,1,.132.316.432.432,0,0,1-.132.316l-8.1,8.1a.432.432,0,0,1-.316.132.432.432,0,0,1-.316-.132l-8.1-8.1a.353.353,0,0,1-.1-.145A.492.492,0,0,1,0-11.7Z" transform="translate(0 12.146)"/></svg>