<svg xmlns="http://www.w3.org/2000/svg" width="20" height="15" viewBox="0 0 20 15">
  <path id="email" d="M19.609-10.039a.193.193,0,0,1,.254-.039A.253.253,0,0,1,20-9.844v7.969a1.808,1.808,0,0,1-.547,1.328A1.808,1.808,0,0,1,18.125,0H1.875A1.808,1.808,0,0,1,.547-.547,1.808,1.808,0,0,1,0-1.875V-9.844a.214.214,0,0,1,.137-.215.252.252,0,0,1,.254.02q1.289.977,6.016,4.414l.391.352A15.539,15.539,0,0,0,8.281-4.258,3.659,3.659,0,0,0,10-3.75,3.467,3.467,0,0,0,11.719-4.3,10.907,10.907,0,0,0,13.2-5.312l.391-.312Q18.2-8.945,19.609-10.039ZM10-5a2.494,2.494,0,0,1-1.25-.469,9.309,9.309,0,0,1-1.211-.859L7.148-6.6q-4.8-3.516-6.523-4.844l-.273-.2A.89.89,0,0,1,0-12.383v-.742a1.808,1.808,0,0,1,.547-1.328A1.808,1.808,0,0,1,1.875-15h16.25a1.808,1.808,0,0,1,1.328.547A1.808,1.808,0,0,1,20-13.125v.742a.89.89,0,0,1-.352.742l-.2.156q-1.68,1.328-6.6,4.883l-.391.273a9.308,9.308,0,0,1-1.211.859A2.494,2.494,0,0,1,10-5Z" transform="translate(0 15)" fill="#ac004d"/>
</svg>
