<svg xmlns="http://www.w3.org/2000/svg" width="45" height="45" viewBox="0 0 45 45">
  <g id="facebook_icn" data-name="facebook icn" transform="translate(-1187 -547)">
    <circle id="Ellipse_50" data-name="Ellipse 50" cx="22.5" cy="22.5" r="22.5" transform="translate(1187 547)" fill="#ac004d"/>
    <path id="facebook" d="M-2.363,2.75H1.676V-7.09H4.812L5.328-11H1.676v-2.707a2.2,2.2,0,0,1,.344-1.375,2,2,0,0,1,1.59-.516H5.672v-3.48a21.282,21.282,0,0,0-3.008-.172A4.98,4.98,0,0,0-.988-17.9a5.1,5.1,0,0,0-1.375,3.8V-11H-5.672v3.91h3.309Z" transform="translate(1209.5 577.75)" fill="#fff"/>
  </g>
</svg>
