<svg xmlns="http://www.w3.org/2000/svg" width="29" height="29" viewBox="0 0 29 29">
  <g id="Group_28" data-name="Group 28" transform="translate(-594 -7906)">
    <path id="Instagram-path" d="M21,0H8A8.01,8.01,0,0,0,0,8V21a8.01,8.01,0,0,0,8,8H21a8.012,8.012,0,0,0,8-8V8a8.012,8.012,0,0,0-8-8Z" transform="translate(594 7906)" fill="#000028"/>
    <path id="Instagram-path-2" data-name="Instagram-path" d="M23.854,18.425a5.437,5.437,0,0,1-5.429,5.431h-13A5.437,5.437,0,0,1,0,18.425v-13A5.436,5.436,0,0,1,5.429,0H18.423a5.436,5.436,0,0,1,5.431,5.429v13Z" transform="translate(596.573 7908.572)" fill="#fff"/>
    <path id="Instagram-path-3" data-name="Instagram-path" d="M7.477,0a7.472,7.472,0,1,0,7.467,7.472A7.472,7.472,0,0,0,7.477,0Z" transform="translate(601.027 7913.025)" fill="#000028"/>
    <path id="Instagram-path-4" data-name="Instagram-path" d="M4.9,9.8A4.9,4.9,0,1,1,9.8,4.9,4.9,4.9,0,0,1,4.9,9.8Z" transform="translate(603.605 7915.601)" fill="#fff"/>
    <path id="Instagram-path-5" data-name="Instagram-path" d="M1.881,0A1.883,1.883,0,1,0,3.215.553,1.883,1.883,0,0,0,1.881,0Z" transform="translate(614.411 7910.846)" fill="#000028"/>
  </g>
</svg>
