<svg xmlns="http://www.w3.org/2000/svg" width="19.25" height="19.25" viewBox="0 0 19.25 19.25">
  <path id="Path_183" data-name="Path 183" d="M0-13.191a4.808,4.808,0,0,1,2.471.666,4.956,4.956,0,0,1,1.8,1.8A4.808,4.808,0,0,1,4.941-8.25a4.808,4.808,0,0,1-.666,2.471,4.956,4.956,0,0,1-1.8,1.8A4.808,4.808,0,0,1,0-3.309a4.808,4.808,0,0,1-2.471-.666,4.956,4.956,0,0,1-1.8-1.8A4.808,4.808,0,0,1-4.941-8.25a4.808,4.808,0,0,1,.666-2.471,4.956,4.956,0,0,1,1.8-1.8A4.808,4.808,0,0,1,0-13.191ZM0-5.027a3.1,3.1,0,0,0,2.277-.945A3.1,3.1,0,0,0,3.223-8.25a3.1,3.1,0,0,0-.945-2.277A3.1,3.1,0,0,0,0-11.473a3.1,3.1,0,0,0-2.277.945A3.1,3.1,0,0,0-3.223-8.25a3.1,3.1,0,0,0,.945,2.277A3.1,3.1,0,0,0,0-5.027Zm6.316-8.379a1.339,1.339,0,0,1-.365.816,1.046,1.046,0,0,1-.795.344,1.115,1.115,0,0,1-.816-.344A1.115,1.115,0,0,1,4-13.406a1.115,1.115,0,0,1,.344-.816,1.115,1.115,0,0,1,.816-.344,1.115,1.115,0,0,1,.816.344A1.115,1.115,0,0,1,6.316-13.406Zm3.266,1.16q.043,1.2.043,4T9.561-4.232A8.1,8.1,0,0,1,9.2-2.105,5.008,5.008,0,0,1,8.014-.236,5.008,5.008,0,0,1,6.144.945a8.1,8.1,0,0,1-2.127.365Q2.793,1.375,0,1.375t-4.018-.064A7.016,7.016,0,0,1-6.145.9,4.58,4.58,0,0,1-8.014-.236,5.008,5.008,0,0,1-9.2-2.105a8.1,8.1,0,0,1-.365-2.127q-.064-1.225-.064-4.018t.064-4.018A8.1,8.1,0,0,1-9.2-14.394a5.008,5.008,0,0,1,1.182-1.869,5.008,5.008,0,0,1,1.869-1.182,8.1,8.1,0,0,1,2.127-.365q1.225-.064,4.018-.064t4.018.064a8.1,8.1,0,0,1,2.127.365,5.008,5.008,0,0,1,1.869,1.182A5.008,5.008,0,0,1,9.2-14.394,8.742,8.742,0,0,1,9.582-12.246ZM7.519-2.578A9.047,9.047,0,0,0,7.863-4.9q.043-.945.043-2.664V-8.937q0-1.762-.043-2.664a8.622,8.622,0,0,0-.344-2.32,3.1,3.1,0,0,0-1.848-1.848,8.622,8.622,0,0,0-2.32-.344q-.945-.043-2.664-.043H-.688q-1.719,0-2.664.043a9.047,9.047,0,0,0-2.32.344A3.1,3.1,0,0,0-7.52-13.922a8.622,8.622,0,0,0-.344,2.32q-.043.945-.043,2.664v1.375q0,1.719.043,2.664a9.047,9.047,0,0,0,.344,2.32A3.257,3.257,0,0,0-5.672-.73a9.047,9.047,0,0,0,2.32.344q.945.043,2.664.043H.687q1.762,0,2.664-.043A8.622,8.622,0,0,0,5.672-.73,3.257,3.257,0,0,0,7.519-2.578Z" transform="translate(9.625 17.875)" fill="#005695"/>
</svg>
