<svg xmlns="http://www.w3.org/2000/svg" width="19.25" height="19.25" viewBox="0 0 19.25 19.25">
  <path id="Path_184" data-name="Path 184" d="M-5.328,1.375V-11.473h-4V1.375ZM-7.3-13.234a2.231,2.231,0,0,0,1.633-.687,2.231,2.231,0,0,0,.687-1.633,2.231,2.231,0,0,0-.687-1.633A2.231,2.231,0,0,0-7.3-17.875a2.231,2.231,0,0,0-1.633.687,2.231,2.231,0,0,0-.687,1.633,2.231,2.231,0,0,0,.687,1.633A2.231,2.231,0,0,0-7.3-13.234ZM9.625,1.375V-5.672a8.69,8.69,0,0,0-.859-4.383,4.264,4.264,0,0,0-3.91-1.762,4.236,4.236,0,0,0-2.406.687A3.434,3.434,0,0,0,1.074-9.711H1.031v-1.762H-2.793V1.375H1.16V-4.984a4.8,4.8,0,0,1,.43-2.277A2.013,2.013,0,0,1,3.523-8.293a1.809,1.809,0,0,1,1.848,1.16A6.941,6.941,0,0,1,5.629-4.9V1.375Z" transform="translate(9.625 17.875)" fill="#005695"/>
</svg>
