<svg xmlns="http://www.w3.org/2000/svg" width="45" height="45" viewBox="0 0 45 45">
  <g id="Group_63" data-name="Group 63" transform="translate(-138 -562)">
    <g id="Group_59" data-name="Group 59">
      <circle id="Ellipse_16" data-name="Ellipse 16" cx="22.5" cy="22.5" r="22.5" transform="translate(138 562)" fill="#41854d" opacity="0.147"/>
      <g id="Group_43" data-name="Group 43" transform="translate(-4169.776 -960.771)">
        <path id="Path_66" data-name="Path 66" d="M4320.815,1544.275a5.489,5.489,0,0,1,2.128-4.992l.15-.116a1.393,1.393,0,0,1,1.781.116l1.634,1.634a1.37,1.37,0,0,1,0,1.932l-.78,1.014a2.09,2.09,0,0,0-.265,2.093c.758,1.786,2.52,5.049,5.479,5.708a2.126,2.126,0,0,0,1.755-.4l1.257-.967a1.369,1.369,0,0,1,1.931,0l1.634,1.635a1.392,1.392,0,0,1,.1,1.8l-.1.133a6.182,6.182,0,0,1-6.45,2.165,13.727,13.727,0,0,1-6.062-3.762A13.564,13.564,0,0,1,4320.815,1544.275Z" transform="translate(0 -0.966)" fill="none" stroke="#41854d" stroke-miterlimit="10" stroke-width="1"/>
        <g id="Group_42" data-name="Group 42" transform="translate(4330.268 1537.271)">
          <path id="Path_67" data-name="Path 67" d="M4344.479,1551.206a3.143,3.143,0,0,1,3.143,3.142" transform="translate(-4344.479 -1545.544)" fill="none" stroke="#41854d" stroke-linecap="round" stroke-linejoin="round" stroke-width="1"/>
          <path id="Path_68" data-name="Path 68" d="M4344.479,1543.919a6.1,6.1,0,0,1,6.1,6.1" transform="translate(-4344.479 -1541.218)" fill="none" stroke="#41854d" stroke-linecap="round" stroke-linejoin="round" stroke-width="1"/>
          <path id="Path_69" data-name="Path 69" d="M4344.479,1537.271a8.805,8.805,0,0,1,8.805,8.8" transform="translate(-4344.479 -1537.271)" fill="none" stroke="#41854d" stroke-linecap="round" stroke-linejoin="round" stroke-width="1"/>
        </g>
      </g>
    </g>
  </g>
</svg>
