<svg xmlns="http://www.w3.org/2000/svg" width="19.987" height="19.987" viewBox="0 0 19.987 19.987">
  <path id="phone" d="M19.258-16.523a.741.741,0,0,1,.547.312.989.989,0,0,1,.2.586,17.827,17.827,0,0,1-2.461,9.141A18.212,18.212,0,0,1,11.016.039,17.827,17.827,0,0,1,1.875,2.5a.989.989,0,0,1-.586-.2.741.741,0,0,1-.312-.547L.039-2.3A.882.882,0,0,1,.117-2.93a.841.841,0,0,1,.469-.43L4.961-5.234a.992.992,0,0,1,.586-.059.785.785,0,0,1,.508.332L7.969-2.617a13.731,13.731,0,0,0,4.082-2.852,14.351,14.351,0,0,0,2.832-4.062l-2.344-1.953a.935.935,0,0,1-.312-.488.974.974,0,0,1,.039-.605l1.875-4.375a.862.862,0,0,1,.43-.43.882.882,0,0,1,.625-.078Z" transform="translate(-0.013 17.487)" fill="#ac004d"/>
</svg>
