<svg xmlns="http://www.w3.org/2000/svg" width="45" height="45" viewBox="0 0 45 45">
  <g id="Group_216" data-name="Group 216" transform="translate(-778 -2533)">
    <path id="Path_173" data-name="Path 173" d="M22.5,0A22.5,22.5,0,1,1,0,22.5,22.5,22.5,0,0,1,22.5,0Z" transform="translate(778 2533)" fill="#005695" opacity="0.147"/>
    <path id="Path_180" data-name="Path 180" d="M9.35-28.27a10.747,10.747,0,0,1-2.255-.247,7.337,7.337,0,0,1-2.117-.8A4.75,4.75,0,0,1,3.383-30.8a4.029,4.029,0,0,1-.633-2.31v-7.04H7.81v6a1.186,1.186,0,0,0,.6,1.21,2.5,2.5,0,0,0,.935.275Zm9.35,0a10.747,10.747,0,0,1-2.255-.247,7.337,7.337,0,0,1-2.117-.8,4.75,4.75,0,0,1-1.6-1.485,4.029,4.029,0,0,1-.632-2.31v-7.04h5.06v6a1.186,1.186,0,0,0,.605,1.21,2.5,2.5,0,0,0,.935.275Z" transform="translate(790 2590)" fill="#005695"/>
  </g>
</svg>
