<svg xmlns="http://www.w3.org/2000/svg" width="50" height="50" viewBox="0 0 50 50">
  <g id="Group_59" data-name="Group 59" transform="translate(-771 -925)">
    <circle id="Ellipse_9" data-name="Ellipse 9" cx="25" cy="25" r="25" transform="translate(771 925)" fill="#337a3c" opacity="0.15"/>
    <g id="Group_31" data-name="Group 31" transform="translate(-1236.132 1273.902)">
      <g id="Group_15" data-name="Group 15" transform="translate(2033.641 -334.669)">
        <path id="Subtraction_7" data-name="Subtraction 7" d="M7.74,23.58a1.6,1.6,0,0,1-1.191-.624A33.081,33.081,0,0,1,4,19.495a27.436,27.436,0,0,1-1.986-3.7A24.463,24.463,0,0,1,.662,11.822,24.02,24.02,0,0,1,.016,7.565a11.538,11.538,0,0,1,.537-4A5.059,5.059,0,0,1,2.355.927,4.879,4.879,0,0,1,5.28,0,6.114,6.114,0,0,1,6.7.173,9.232,9.232,0,0,1,9.87,1.652,12.155,12.155,0,0,1,12.5,4.214,12.177,12.177,0,0,1,14.28,7.432a9.268,9.268,0,0,1,.594,3.452,4.909,4.909,0,0,1-1.683,3.523,6.6,6.6,0,0,1-4.026,1.585c-.2.012-.411.018-.611.018a9.064,9.064,0,0,1-3.24-.579A9.638,9.638,0,0,1,2.441,13.68a50.821,50.821,0,0,0,2.331,5.227,19.034,19.034,0,0,0,3.34,4.61A1.131,1.131,0,0,1,7.74,23.58ZM5.344.457H5.33A3.047,3.047,0,0,0,3.8.884h0c-.05.029-.1.059-.151.091A4.968,4.968,0,0,0,1.8,3a7.259,7.259,0,0,0-.687,2.639c0,.049-.007.1-.007.153a4.56,4.56,0,0,0,.111.842c.036.19.078.406.111.643a.65.65,0,0,1-.025.075,1.211,1.211,0,0,0-.095.409.484.484,0,0,0,.016.128,18.781,18.781,0,0,0,.835,2.479,7.991,7.991,0,0,0,4.422,4.66,5.434,5.434,0,0,0,.678.217,5.322,5.322,0,0,0,.957.147c.107.006.215.01.322.01A5.31,5.31,0,0,0,11.6,14.363a4.87,4.87,0,0,0,1.133-1.181,4.529,4.529,0,0,0,.663-1.519,4.6,4.6,0,0,0,.115-.886c0-.079,0-.16,0-.241a9.1,9.1,0,0,0-.571-3.077A11.99,11.99,0,0,0,11.4,4.543,11.887,11.887,0,0,0,9.135,2.149,8.9,8.9,0,0,0,6.412.639,3.415,3.415,0,0,0,5.349.457H5.344Z" transform="translate(0 0)" fill="#41854d" stroke="rgba(0,0,0,0)" stroke-miterlimit="10" stroke-width="1"/>
      </g>
      <g id="Group_16" data-name="Group 16" transform="translate(2015 -336)">
        <path id="Subtraction_7-2" data-name="Subtraction 7" d="M7.74,23.58a1.6,1.6,0,0,1-1.191-.624A33.081,33.081,0,0,1,4,19.495a27.436,27.436,0,0,1-1.986-3.7A24.463,24.463,0,0,1,.662,11.822,24.02,24.02,0,0,1,.016,7.565a11.538,11.538,0,0,1,.537-4A5.059,5.059,0,0,1,2.355.927,4.879,4.879,0,0,1,5.28,0,6.114,6.114,0,0,1,6.7.173,9.232,9.232,0,0,1,9.87,1.652,12.155,12.155,0,0,1,12.5,4.214,12.177,12.177,0,0,1,14.28,7.432a9.268,9.268,0,0,1,.594,3.452,4.909,4.909,0,0,1-1.683,3.523,6.6,6.6,0,0,1-4.026,1.585c-.2.012-.411.018-.611.018a9.064,9.064,0,0,1-3.24-.579A9.638,9.638,0,0,1,2.441,13.68a50.821,50.821,0,0,0,2.331,5.227,19.034,19.034,0,0,0,3.34,4.61A1.131,1.131,0,0,1,7.74,23.58ZM5.344.457H5.33A3.047,3.047,0,0,0,3.8.884h0c-.05.029-.1.059-.151.091A4.968,4.968,0,0,0,1.8,3a7.259,7.259,0,0,0-.687,2.639c0,.049-.007.1-.007.153a4.56,4.56,0,0,0,.111.842c.036.19.078.406.111.643a.65.65,0,0,1-.025.075,1.211,1.211,0,0,0-.095.409.484.484,0,0,0,.016.128,18.781,18.781,0,0,0,.835,2.479,7.991,7.991,0,0,0,4.422,4.66,5.434,5.434,0,0,0,.678.217,5.322,5.322,0,0,0,.957.147c.107.006.215.01.322.01A5.31,5.31,0,0,0,11.6,14.363a4.87,4.87,0,0,0,1.133-1.181,4.529,4.529,0,0,0,.663-1.519,4.6,4.6,0,0,0,.115-.886c0-.079,0-.16,0-.241a9.1,9.1,0,0,0-.571-3.077A11.99,11.99,0,0,0,11.4,4.543,11.887,11.887,0,0,0,9.135,2.149,8.9,8.9,0,0,0,6.412.639,3.415,3.415,0,0,0,5.349.457H5.344Z" transform="translate(0 0)" fill="#41854d" stroke="rgba(0,0,0,0)" stroke-miterlimit="10" stroke-width="1"/>
      </g>
    </g>
  </g>
</svg>
