<?xml version="1.0" encoding="utf-8"?>
<!-- Generator: Adobe Illustrator 25.4.1, SVG Export Plug-In . SVG Version: 6.00 Build 0)  -->
<svg version="1.1" id="Layer_1" xmlns="http://www.w3.org/2000/svg" xmlns:xlink="http://www.w3.org/1999/xlink" x="0px" y="0px"
	 viewBox="0 0 45 45" style="enable-background:new 0 0 45 45;" xml:space="preserve">
<style type="text/css">
	.st0{opacity:0.147;fill:#D5AA59;enable-background:new    ;}
	.st1{fill:#A80A2F;}
</style>
<g id="Group_216" transform="translate(-778 -2533)">
	<path id="Path_173" class="st0" d="M800.5,2533c12.4,0,22.5,10.1,22.5,22.5s-10.1,22.5-22.5,22.5s-22.5-10.1-22.5-22.5
		S788.1,2533,800.5,2533z"/>
	<path id="Path_180" class="st1" d="M799.3,2561.7c-0.8,0-1.5-0.1-2.3-0.2c-0.7-0.2-1.5-0.4-2.1-0.8c-0.6-0.4-1.2-0.9-1.6-1.5
		c-0.4-0.7-0.7-1.5-0.6-2.3v-7h5.1v6c-0.1,0.5,0.2,1,0.6,1.2c0.3,0.2,0.6,0.2,0.9,0.3L799.3,2561.7z M808.7,2561.7
		c-0.8,0-1.5-0.1-2.3-0.2c-0.7-0.2-1.5-0.4-2.1-0.8c-0.6-0.4-1.2-0.9-1.6-1.5c-0.4-0.7-0.7-1.5-0.6-2.3v-7h5.1v6
		c-0.1,0.5,0.2,1,0.6,1.2c0.3,0.2,0.6,0.2,0.9,0.3L808.7,2561.7z"/>
</g>
</svg>
