<svg xmlns="http://www.w3.org/2000/svg" width="70.357" height="61.674" viewBox="0 0 70.357 61.674">
  <g id="Group_231" data-name="Group 231" transform="translate(-4522.208 -1425.68)">
    <g id="Group_168" data-name="Group 168" transform="translate(4523.743 1443.009)">
      <path id="Path_93" data-name="Path 93" d="M4567.708,1451.2s2.387-3.9,3.769-4.112,5.653-1.488,5.905-2.2c0,0,.879,4.68-1.7,7.3s-4.083,4.081-4.083,4.081" transform="translate(-4516.116 -1439.937)" fill="none" stroke="#005695" stroke-linecap="round" stroke-linejoin="round" stroke-width="3"/>
      <path id="Path_94" data-name="Path 94" d="M4576.54,1447.487" transform="translate(-4514.584 -1439.486)" fill="none" stroke="#005695" stroke-linecap="round" stroke-linejoin="round" stroke-width="3"/>
      <path id="Path_95" data-name="Path 95" d="M4574.724,1453.831a10.511,10.511,0,0,1,1.947,3.544c.628,1.773,5.025,4.75,5.716,5.318a2.1,2.1,0,0,0,2.325,0s.628,5.529-1.131,6.31a33.245,33.245,0,0,1-8.857,2.268c-2.387.071-11.81,0-13-1.347s-2.45-3.333-2.2-4.324" transform="translate(-4517.541 -1436.614)" fill="none" stroke="#005695" stroke-linecap="round" stroke-linejoin="round" stroke-width="3"/>
      <path id="Path_96" data-name="Path 96" d="M4579.98,1461.721s-1.324.525-1.135,2.581" transform="translate(-4514.187 -1435.303)" fill="none" stroke="#005695" stroke-linecap="round" stroke-linejoin="round" stroke-width="3"/>
      <path id="Path_97" data-name="Path 97" d="M4576.307,1447.655a7,7,0,0,0,2.262-1.134s1.043,7.869-2.494,10.562" transform="translate(-4514.665 -1439.049)" fill="none" stroke="#005695" stroke-linecap="round" stroke-linejoin="round" stroke-width="3"/>
      <path id="Path_98" data-name="Path 98" d="M4568.208,1474.255l-2.142,9.259h-5.134l-1.648-9.259s-8.517,2.63-21.583,0l-2.233,9.259h-5.457l-.911-9.864s-12.054-13.624,0-26.462,35.28-2.755,35.28-2.755,11.9,1.284,13.344,4.756" transform="translate(-4523.742 -1440.669)" fill="none" stroke="#005695" stroke-linecap="round" stroke-linejoin="round" stroke-width="3"/>
    </g>
    <path id="Path_99" data-name="Path 99" d="M4538.017,1439.208a10.391,10.391,0,1,1,20.02,1.946" transform="translate(2.454 0)" fill="none" stroke="#005695" stroke-linecap="round" stroke-linejoin="round" stroke-width="3"/>
  </g>
</svg>
