<?xml version="1.0" encoding="utf-8"?>
<!-- Generator: Adobe Illustrator 26.3.1, SVG Export Plug-In . SVG Version: 6.00 Build 0)  -->
<svg version="1.1" id="Layer_1" xmlns="http://www.w3.org/2000/svg" xmlns:xlink="http://www.w3.org/1999/xlink" x="0px" y="0px"
	 viewBox="0 0 26 60" style="enable-background:new 0 0 26 60;" xml:space="preserve">
<style type="text/css">
	.st0{fill:none;stroke:#000000;stroke-width:2;}
</style>
<path id="down_arrow" class="st0" d="M1,24.3c0-0.1,0-0.2,0-0.2C1,24,1.1,24,1.1,23.9c0.2-0.1,0.4-0.2,0.5-0.2
	c0.2,0,0.4,0.1,0.5,0.2L13,34.8l10.9-10.9c0.1-0.1,0.3-0.2,0.5-0.2c0.2,0,0.3,0.1,0.5,0.2c0,0.1,0.1,0.3,0.1,0.4
	c0,0.2-0.1,0.3-0.2,0.4L13.4,36.1c-0.1,0.1-0.3,0.2-0.4,0.2c-0.2,0-0.3-0.1-0.4-0.2L1.2,24.8c-0.1-0.1-0.1-0.1-0.2-0.2
	C1,24.5,1,24.4,1,24.3z"/>
</svg>
