<svg xmlns="http://www.w3.org/2000/svg" width="62.957" height="53.789" viewBox="0 0 62.957 53.789">
  <g id="Group_241" data-name="Group 241" transform="translate(282.705 -1237.827)">
    <path id="Path_185" data-name="Path 185" d="M-277.62,1264.95h0a4.085,4.085,0,0,0-4.085,4.085v10.684a4.085,4.085,0,0,0,4.085,4.085h0a4.085,4.085,0,0,0,4.085-4.085v-10.684A4.085,4.085,0,0,0-277.62,1264.95Z" fill="none" stroke="#005695" stroke-linecap="round" stroke-linejoin="round" stroke-width="2"/>
    <path id="Path_186" data-name="Path 186" d="M-224.832,1264.95h0a4.085,4.085,0,0,0-4.085,4.085v10.684a4.085,4.085,0,0,0,4.085,4.085h0a4.084,4.084,0,0,0,4.084-4.085v-10.684A4.084,4.084,0,0,0-224.832,1264.95Z" fill="none" stroke="#005695" stroke-linecap="round" stroke-linejoin="round" stroke-width="2"/>
    <path id="Path_187" data-name="Path 187" d="M-277.843,1264.837c0-14.7,11.918-26.01,26.619-26.01s26.619,11.308,26.619,26.01" fill="none" stroke="#005695" stroke-linecap="round" stroke-linejoin="round" stroke-width="2"/>
    <path id="Path_188" data-name="Path 188" d="M-241.8,1286.688h14.756a2.686,2.686,0,0,0,2.526-2.622" fill="none" stroke="#005695" stroke-linecap="round" stroke-linejoin="round" stroke-width="2"/>
    <rect id="Rectangle_175" data-name="Rectangle 175" width="15.711" height="7.856" rx="3.417" transform="translate(-242.114 1290.616) rotate(180)" fill="none" stroke="#005695" stroke-linecap="round" stroke-linejoin="round" stroke-width="2"/>
  </g>
</svg>
