<svg xmlns="http://www.w3.org/2000/svg" width="22" height="17.875" viewBox="0 0 22 17.875">
  <path id="Path_182" data-name="Path 182" d="M8.723-12.719A9.918,9.918,0,0,0,11-15.082a9.692,9.692,0,0,1-2.578.73A4.478,4.478,0,0,0,10.4-16.844a9.179,9.179,0,0,1-2.879,1.074A5.1,5.1,0,0,0,6.037-16.8a4.3,4.3,0,0,0-1.826-.387,4.358,4.358,0,0,0-2.234.6A4.416,4.416,0,0,0,.344-14.932a4.473,4.473,0,0,0-.6,2.256,6.263,6.263,0,0,0,.086,1.031A12.489,12.489,0,0,1-5.35-13.019a12.441,12.441,0,0,1-4.1-3.352,4.319,4.319,0,0,0-.645,2.256,4.334,4.334,0,0,0,.559,2.17,5.005,5.005,0,0,0,1.461,1.633,4.248,4.248,0,0,1-2.02-.6v.086A4.326,4.326,0,0,0-9.066-7.992,4.546,4.546,0,0,0-6.488-6.4a5.727,5.727,0,0,1-1.2.129q-.387,0-.816-.043A4.487,4.487,0,0,0-6.939-4.1,4.2,4.2,0,0,0-4.3-3.223,8.945,8.945,0,0,1-9.926-1.289q-.6,0-1.074-.043A12.518,12.518,0,0,0-4.082.687a12.4,12.4,0,0,0,7-2.02,12.271,12.271,0,0,0,4.34-4.855,12.741,12.741,0,0,0,1.5-5.973A2.56,2.56,0,0,0,8.723-12.719Z" transform="translate(11 17.188)" fill="#005695"/>
</svg>
