<svg xmlns="http://www.w3.org/2000/svg" width="23.461" height="16.5" viewBox="0 0 23.461 16.5">
  <path id="Path_94" data-name="Path 94" d="M11.258-13.922a19.417,19.417,0,0,1,.43,3.523L11.73-8.25,11.687-6.1a19.645,19.645,0,0,1-.43,3.566,3,3,0,0,1-.773,1.289,2.979,2.979,0,0,1-1.332.773,30.563,30.563,0,0,1-5.242.43L0,0-3.91-.043a30.563,30.563,0,0,1-5.242-.43,2.979,2.979,0,0,1-1.332-.773,3,3,0,0,1-.773-1.289,19.645,19.645,0,0,1-.43-3.566L-11.73-8.25q0-.945.043-2.148a19.417,19.417,0,0,1,.43-3.523,2.979,2.979,0,0,1,.773-1.332,2.979,2.979,0,0,1,1.332-.773,30.563,30.563,0,0,1,5.242-.43L0-16.5l3.91.043a30.563,30.563,0,0,1,5.242.43,2.979,2.979,0,0,1,1.332.773A2.979,2.979,0,0,1,11.258-13.922Zm-13.664,9.2L3.738-8.25l-6.145-3.48Z" transform="translate(11.73 16.5)" fill="#005695"/>
</svg>
